<?xml version="1.0" encoding="utf-8"?>
<!-- Generator: Adobe Illustrator 27.4.1, SVG Export Plug-In . SVG Version: 6.00 Build 0)  -->
<svg version="1.1" id="Layer_1" xmlns="http://www.w3.org/2000/svg" xmlns:xlink="http://www.w3.org/1999/xlink" x="0px" y="0px"
	 viewBox="0 0 800 183" style="enable-background:new 0 0 800 183;" xml:space="preserve">
<style type="text/css">
	.st0{fill:none;}
	.st1{fill:#FFFFFF;}
</style>
<g>
	<rect y="-0.42" class="st0" width="800" height="183.69"/>
	<g>
		<g>
			<path class="st1" d="M186.28,71.96v34.22c0,3.63-1.85,4.2-3.63,4.77v1.21h15.79v-1.21c-1.78-0.57-3.63-1.14-3.63-4.77V71.96
				c0-2.06,0.64-2.56,3.34-2.56c7.4,0,11.03,0.14,13.66,4.27l0.92-0.57l-2.98-8.75h-38.49l-2.99,8.75l0.93,0.57
				c3.2-4.05,5.69-4.27,13.73-4.27C185.63,69.4,186.28,69.89,186.28,71.96z M204.28,76.87c2.34,0.64,3.56,1.21,3.56,4.77v24.55
				c0,3.63-1.21,4.2-3.56,4.77v1.21h29.81l3.41-8.54l-0.93-0.64c-2.99,3.91-6.12,4.84-10.24,4.84h-7.68c-2.42,0-2.99-0.07-2.99-2.42
				V95.15h9.32c3.63,0,4.2,0.85,4.77,2.99h1.42V87.89h-1.42c-0.57,2.13-1.14,3.06-4.77,3.06h-9.32v-8.61c0-1.78,0.57-2.35,2.99-2.35
				c0,0,5.98,0,6.55,0c4.2,0,6.4,1.07,9.6,4.48l0.92-0.64l-2.99-8.18h-28.46V76.87z M242.62,81.06l9.11,12.88l-8.61,12.24
				c-2.63,3.7-4.2,4.2-6.62,4.77v1.21h13.8v-1.21c-2.63-0.5-3.77-1.5-1.99-4.27l6.03-9.43l6.35,9.14c2.35,3.34-0.14,4.27-2.28,4.55
				v1.21h24.97v-1.21c-2.49-0.43-3.63-1.28-2.35-4.7l1.63-4.27h14.95l1.56,4.27c1,2.77,0.64,4.27-2.28,4.7v1.21h15.37v-1.21
				c-1.78-0.57-3.42-2.06-4.2-4.13l-11.88-31.16h-8.11l-11.38,29.03c-1.21,3.01-2.32,4.43-3.52,5.25c-0.94-0.6-1.8-1.5-2.95-3.12
				l-10.01-14.19l8.09-11.43c2.13-3.06,3.91-3.7,6.05-4.34v-1.21h-13.02v1.21c2.7,0.21,3.49,1.71,1.92,4.06l-5.64,8.36l-5.1-7.65
				c-2.13-3.13-0.57-4.41,1.78-4.77v-1.21H237v1.21C239.42,77.51,240.62,78.22,242.62,81.06z M290.28,81.99l5.84,15.94h-11.92
				L290.28,81.99z M315.61,112.15c0-0.57,0.57-1.78,1.28-1.78c1.63,0.78,4.41,2.42,9.53,2.42c8.61,0,14.66-4.27,14.66-11.53
				c0-6.83-3.77-9.6-11.03-11.24l-6.62-1.49c-3.77-0.85-4.98-1.92-4.98-4.27c0-2.71,2.13-4.48,6.83-4.48c5.26,0,9.39,2.49,12.38,5.9
				l0.93-0.64l-2.71-9.39h-1.71c0,0.78-0.35,1.64-1.07,1.64c-1.57-0.85-3.98-2.2-8.11-2.2c-7.4,0-13.16,3.84-13.16,10.81
				c0,5.34,3.2,8.68,10.17,10.24l6.26,1.43c4.2,0.92,5.69,2.42,5.69,5.05c0,3.63-2.91,5.55-7.68,5.55c-6.69,0-10.96-3.49-14.44-7.54
				l-0.93,0.64l2.92,10.89H315.61z"/>
			<path class="st1" d="M364.11,65.56c2.21,0.64,3.98,1.21,3.98,4.77v35.86c0,3.63-1.78,4.19-3.98,4.76v1.21h16.51v-1.21
				c-2.21-0.57-3.99-1.14-3.99-4.76V70.32c0-3.56,1.78-4.12,3.99-4.77v-1.21h-16.51V65.56z M409.43,76.87
				c2.13,0.64,3.34,1.21,3.34,4.77v14.94h-0.21l-18.36-20.92h-10.74v1.21c2.13,0.92,3.56,1.64,3.56,4.77v24.55
				c0,3.41-1.21,4.19-3.56,4.76v1.21h12.17v-1.21c-1.92-0.57-3.77-1.35-3.77-4.76v-21.2h0.21l24.26,27.68h1.28V81.64
				c0-3.56,1.78-4.13,3.21-4.77v-1.21h-11.38V76.87z M441.23,90.03l-6.61-1.49c-3.77-0.85-4.98-1.92-4.98-4.27
				c0-2.71,2.13-4.48,6.83-4.48c5.27,0,9.39,2.49,12.38,5.9l0.92-0.64l-2.7-9.39h-1.71c0,0.78-0.35,1.64-1.07,1.64
				c-1.57-0.85-3.98-2.21-8.11-2.21c-7.4,0-13.16,3.84-13.16,10.81c0,5.34,3.21,8.68,10.18,10.24l6.26,1.43
				c4.2,0.93,5.69,2.42,5.69,5.05c0,3.63-2.92,5.55-7.68,5.55c-6.69,0-10.96-3.48-14.44-7.54l-0.92,0.64l2.92,10.89h1.78
				c0-0.57,0.57-1.78,1.28-1.78c1.64,0.78,4.41,2.42,9.54,2.42c8.61,0,14.66-4.27,14.66-11.53
				C452.26,94.44,448.49,91.67,441.23,90.03z M454.39,75.66l-2.92,9.39l0.93,0.64c3.91-5.19,4.98-5.69,10.17-5.69
				c1.78,0,2.35,0.14,2.35,2.35v23.84c0,3.63-1.06,4.19-3.98,4.76v1.21h15.65v-1.21c-2.85-0.57-3.99-1.14-3.99-4.76V82.35
				c0-2.21,0.57-2.35,2.35-2.35c5.19,0,6.55,0.5,10.46,5.69l0.93-0.64l-2.92-9.39H454.39z M517.78,101.35
				c-2.21-3.56-4.48-5.12-7.11-5.77v-0.21c6.26-1,9.82-4.27,9.82-9.61c0-7.11-5.69-10.1-14.87-10.1h-18.71v1.21
				c2.35,0.64,3.56,1.21,3.56,4.77v24.55c0,3.63-1.21,4.19-3.56,4.76v1.21h15.29v-1.21c-2.21-0.57-3.7-1.14-3.7-4.76v-9.11h3.77
				c4.41,0,5.05,1.78,7.9,7.75c2.35,4.91,5.48,7.97,11.38,7.97c2.99,0,4.2-0.57,5.41-1.21v-1
				C522.19,109.88,520.63,105.97,517.78,101.35z M504.76,92.81h-6.26v-9.67c0-2.35,0.57-2.99,2.35-2.99h4.06
				c4.41,0,6.97,1.71,6.97,5.98C511.88,90.6,508.96,92.81,504.76,92.81z M550.15,76.87c1.85,0.43,3.63,1.21,3.63,4.77v18
				c0,5.97-2.28,8.61-9.04,8.61c-7.18,0-9.75-2.64-9.75-8.61v-18c0-3.56,1.35-4.34,3.56-4.77v-1.21h-14.94v1.21
				c2.21,0.35,3.63,1.21,3.63,4.77v18.57c0,9.75,8.47,12.59,16.43,12.59c8.89,0,15.23-2.99,15.23-13.16v-18
				c0-3.56,1.07-4.27,3.27-4.77v-1.21h-12.03V76.87z M588,99.35l-10.53-23.69h-13.09v1.21c2.35,0.64,3.55,1.21,3.55,4.77v24.55
				c0,3.2-1.35,4.05-3.55,4.76v1.21h11.59v-1.21c-2.42-0.64-3.48-1.56-3.48-4.76V83.27l13.16,29.46h1l12.81-29.46v22.91
				c0,3.63-1.57,4.27-3.34,4.76v1.21h14.94v-1.21c-2.35-0.57-3.56-1.14-3.56-4.76V81.64c0-3.56,1.21-4.13,3.56-4.77v-1.21h-12.88
				L588,99.35z M635.95,107.82h-7.68c-2.42,0-2.99-0.07-2.99-2.42V95.16h9.32c3.63,0,4.2,0.85,4.77,2.99h1.42V87.9h-1.42
				c-0.57,2.13-1.14,3.06-4.77,3.06h-9.32v-8.61c0-1.78,0.57-2.35,2.99-2.35c0,0,5.97,0,6.54,0c4.19,0,6.4,1.07,9.6,4.48l0.92-0.64
				l-2.99-8.18H613.9v1.21c2.35,0.64,3.56,1.21,3.56,4.77v24.55c0,3.63-1.21,4.19-3.56,4.76v1.21h29.81l3.42-8.54l-0.92-0.64
				C643.21,106.9,640.08,107.82,635.95,107.82z M673.95,76.87c2.13,0.64,3.34,1.21,3.34,4.77v14.94h-0.21l-18.36-20.92h-10.74v1.21
				c2.13,0.92,3.56,1.64,3.56,4.77v24.55c0,3.41-1.21,4.19-3.56,4.76v1.21h12.17v-1.21c-1.92-0.57-3.77-1.35-3.77-4.76v-21.2h0.21
				l24.26,27.68h1.28V81.64c0-3.56,1.78-4.13,3.2-4.77v-1.21h-11.38V76.87z M688.67,75.66l-2.92,9.39l0.92,0.64
				c3.91-5.19,4.98-5.69,10.18-5.69c1.78,0,2.35,0.14,2.35,2.35v23.84c0,3.63-1.07,4.19-3.98,4.76v1.21h15.66v-1.21
				c-2.85-0.57-3.99-1.14-3.99-4.76V82.35c0-2.21,0.57-2.35,2.35-2.35c5.19,0,6.55,0.5,10.46,5.69l0.92-0.64l-2.92-9.39H688.67z
				 M740.75,90.03l-6.61-1.49c-3.77-0.85-4.98-1.92-4.98-4.27c0-2.71,2.13-4.48,6.83-4.48c5.26,0,9.39,2.49,12.38,5.9l0.93-0.64
				l-2.71-9.39h-1.71c0,0.78-0.36,1.64-1.07,1.64c-1.56-0.85-3.98-2.21-8.11-2.21c-7.39,0-13.15,3.84-13.15,10.81
				c0,5.34,3.2,8.68,10.17,10.24l6.26,1.43c4.19,0.93,5.69,2.42,5.69,5.05c0,3.63-2.92,5.55-7.69,5.55
				c-6.69,0-10.95-3.48-14.44-7.54l-0.93,0.64l2.92,10.89h1.78c0-0.57,0.57-1.78,1.28-1.78c1.64,0.78,4.41,2.42,9.53,2.42
				c8.61,0,14.66-4.27,14.66-11.53C751.78,94.44,748,91.67,740.75,90.03z"/>
		</g>
		<path class="st1" d="M133.49,75.27V64.37h-17.46l-2.2,10.99h6.28l-2.01,10.1h-6.28l-2.18,10.95c-0.17,0.74-0.29,1.28-0.37,1.79
			c-0.51,3.35,0.95,3.19,5.65,3.19l-2.15,10.76h-8.22c-7.77,0-14.1-0.08-12.45-8.02c0.26-1.24,0.57-2.44,0.8-3.63l2.94-15.03h-6.04
			l2.02-10.1h6.04l2.2-10.99h-5.65V47.81H73.47v33.7H48.45c0.62,8.74,8.35,10.01,11.17,16.22c1.94,4.28,3.64,11.8,9.31,11.87
			c4.34,0.05,4.34-5.62,9.93-5.62c5.59,0,8.07,10.61,13.03,19.35c3.72,6.86,9.91,11.46,15.52,11.85c4.6,0.32,6.83-1.24,6.83-1.24
			c-1.24-2.5-1.86-4.99-1.86-8.73c0-5.62,4.35-11.23,9.31-14.97c6.83-5,14.28-6.88,16.76-7.49V85.26
			C138.45,85.26,133.49,82.6,133.49,75.27z M105,101.39l7.34-37.01h-8.46l-7.34,37.01H105z M114.61,52.68h-8.46l-1.62,8.17h8.46
			L114.61,52.68z"/>
	</g>
</g>
</svg>
